<svg width="640" height="480" viewBox="0 0 640 480" fill="none" xmlns="http://www.w3.org/2000/svg">
<g clip-path="url(#clip0_653_40)">
<rect width="640" height="480" fill="#37373E"/>
<path d="M640.009 0H0V477.928H640.009V0Z" fill="#37373E"/>
<path d="M640.009 320.731H0V480.018H640.009V320.731Z" fill="#37373E"/>
<path fill-rule="evenodd" clip-rule="evenodd" d="M0 0H640.019V159.288H0V0Z" fill="#37373E"/>
<path d="M428.826 298.569L369.745 239.494L428.807 180.425C429.389 179.843 429.851 179.152 430.166 178.392C430.481 177.632 430.643 176.817 430.643 175.994C430.643 175.172 430.481 174.357 430.166 173.597C429.851 172.837 429.389 172.146 428.807 171.564L387.432 130.179C386.257 129.004 384.662 128.344 383 128.344C381.338 128.344 379.744 129.004 378.568 130.179L319.496 189.248L260.434 130.179C258.084 127.826 253.923 127.826 251.57 130.179L210.185 171.558C209.011 172.734 208.352 174.328 208.352 175.99C208.352 177.652 209.011 179.245 210.185 180.422L269.257 239.494L210.175 298.572C209.002 299.749 208.344 301.343 208.344 303.004C208.344 304.666 209.002 306.259 210.175 307.436L251.554 348.818C252.135 349.4 252.826 349.863 253.587 350.178C254.347 350.493 255.163 350.656 255.986 350.656C256.809 350.656 257.624 350.493 258.385 350.178C259.145 349.863 259.836 349.4 260.418 348.818L319.496 289.739L378.578 348.815C379.803 350.037 381.4 350.651 383.01 350.651C384.619 350.651 386.219 350.037 387.445 348.815L428.829 307.433C430.004 306.257 430.664 304.663 430.663 303C430.663 301.338 430.002 299.744 428.826 298.569Z" fill="#66666F"/>
</g>
<defs>
<clipPath id="clip0_653_40">
<rect width="640" height="480" fill="white"/>
</clipPath>
</defs>
</svg>
