<?xml version="1.0" standalone="no"?>
<!DOCTYPE svg PUBLIC "-//W3C//DTD SVG 20010904//EN"
 "http://www.w3.org/TR/2001/REC-SVG-20010904/DTD/svg10.dtd">
<svg version="1.0" xmlns="http://www.w3.org/2000/svg"
 width="157.000000pt" height="157.000000pt" viewBox="0 0 157.000000 157.000000"
 preserveAspectRatio="xMidYMid meet">
<metadata>
Created by potrace 1.14, written by Peter Selinger 2001-2017
</metadata>
<g transform="translate(0.000000,157.000000) scale(0.100000,-0.100000)"
fill="#000000" stroke="none">
<path d="M458 1411 c-125 -131 -181 -216 -198 -298 -10 -46 -17 -57 -49 -77
-50 -32 -96 -86 -111 -132 -16 -47 -8 -149 14 -192 39 -75 140 -118 306 -130
89 -6 105 -10 108 -25 2 -10 -3 -29 -12 -42 -15 -23 -17 -24 -143 -18 -147 6
-189 -2 -259 -50 -135 -93 -123 -262 23 -333 53 -26 67 -29 158 -28 87 0 112
5 190 33 50 18 116 46 147 62 32 16 65 29 74 29 8 0 74 -28 146 -62 l130 -62
42 23 c111 63 246 161 312 228 103 104 154 207 161 326 16 257 -146 404 -465
424 -70 4 -105 10 -109 19 -2 7 34 89 81 181 47 93 86 174 86 181 0 7 -11 12
-24 12 -17 0 -30 -10 -45 -35 -11 -20 -28 -38 -36 -41 -9 -4 -97 23 -196 60
-99 36 -189 66 -199 66 -10 0 -67 -51 -132 -119z m262 -105 c71 -29 137 -71
154 -98 8 -13 5 -27 -13 -60 -13 -24 -30 -50 -38 -59 -19 -22 -147 -43 -231
-37 -200 14 -264 192 -97 270 53 25 139 19 225 -16z m-392 -357 c85 -75 112
-84 241 -84 128 0 135 -4 101 -59 -17 -28 -30 -37 -71 -45 -152 -33 -321 15
-362 102 -21 44 -21 76 -1 105 22 31 39 28 92 -19z m826 -75 c60 -23 140 -93
169 -148 33 -63 30 -154 -7 -229 -35 -68 -110 -163 -148 -185 -25 -15 -31 -15
-85 4 -32 12 -59 28 -61 36 -2 10 28 36 82 72 95 63 126 109 126 187 0 64 -29
105 -98 137 -53 25 -68 27 -215 30 -119 3 -160 7 -163 17 -3 7 4 31 15 53 25
49 35 51 211 47 92 -2 138 -8 174 -21z m-149 -298 c43 -28 34 -65 -34 -129
-44 -42 -67 -57 -88 -57 -36 1 -292 75 -306 89 -8 8 -5 23 10 55 21 43 24 45
75 50 168 19 307 15 343 -8z m-567 -276 c100 -24 144 -45 140 -67 -4 -22 -119
-79 -197 -99 -84 -21 -149 -14 -200 19 -83 55 -90 124 -18 158 51 24 144 20
275 -11z"/>
<path d="M504 1301 c-104 -47 -111 -145 -14 -200 45 -25 75 -28 40 -4 -58 40
-63 70 -20 107 59 49 137 44 261 -18 64 -33 66 -33 78 -14 16 25 5 39 -63 77
-64 37 -165 71 -208 71 -18 0 -51 -9 -74 -19z"/>
<path d="M568 1073 c7 -3 16 -2 19 1 4 3 -2 6 -13 5 -11 0 -14 -3 -6 -6z"/>
<path d="M250 951 c-14 -26 -13 -37 6 -77 38 -79 194 -123 332 -94 36 8 52 18
64 38 l16 27 -111 0 c-127 0 -154 10 -239 84 -25 23 -49 41 -52 41 -3 0 -10
-9 -16 -19z m165 -145 l30 -16 -30 6 c-55 12 -115 58 -115 89 0 3 19 -9 43
-28 23 -19 56 -42 72 -51z"/>
<path d="M834 874 c-23 -4 -35 -14 -47 -39 l-16 -33 157 -4 c151 -3 159 -4
217 -33 84 -42 108 -80 103 -165 -5 -89 -30 -127 -129 -192 l-78 -52 49 -19
c49 -18 50 -18 78 2 16 11 35 28 43 38 8 10 -1 5 -19 -10 -33 -27 -52 -34 -52
-19 0 9 73 57 83 54 15 -4 88 125 93 163 0 6 4 18 9 28 10 23 -2 82 -25 128
-26 49 -97 110 -156 133 -49 18 -238 30 -310 20z m365 -98 c34 -18 105 -95 95
-104 -4 -4 -9 -2 -11 5 -10 29 -48 65 -91 88 -26 13 -41 24 -34 25 7 0 25 -6
41 -14z"/>
<path d="M775 574 c-145 -11 -151 -13 -168 -49 l-16 -34 67 -20 c37 -11 100
-29 141 -41 40 -12 83 -19 95 -16 12 3 39 24 61 48 l40 43 -42 -39 -42 -39
-120 34 c-148 42 -138 49 71 52 132 2 148 4 148 19 0 10 -9 22 -21 28 -23 13
-135 20 -214 14z"/>
<path d="M178 294 c-20 -8 -39 -22 -42 -30 -16 -42 60 -111 132 -121 50 -7
151 19 230 59 63 32 63 32 38 45 -37 19 -178 51 -254 58 -49 4 -77 1 -104 -11z
m262 -62 l75 -18 -50 -16 c-114 -38 -228 -31 -260 15 -15 21 -14 23 12 35 34
15 117 9 223 -16z"/>
<path d="M1110 1468 c0 -12 -39 -98 -86 -191 l-86 -168 42 3 42 3 74 137 c41
76 74 147 74 159 0 28 -16 56 -40 69 -17 9 -20 8 -20 -12z"/>
<path d="M1250 1070 c8 -5 20 -10 25 -10 6 0 3 5 -5 10 -8 5 -19 10 -25 10 -5
0 -3 -5 5 -10z"/>
<path d="M1336 1031 c131 -75 191 -196 182 -366 -4 -81 -10 -104 -40 -167 -65
-135 -169 -238 -368 -362 -58 -36 -114 -66 -126 -66 -12 0 -78 27 -149 61
l-127 61 -87 -40 c-157 -72 -214 -87 -332 -87 -98 0 -110 2 -165 30 -43 22
-68 43 -91 79 -39 57 -42 53 -9 -12 41 -81 166 -142 290 -142 87 0 154 17 301
75 129 51 119 52 273 -21 51 -24 105 -44 120 -44 33 0 221 111 311 184 84 68
157 157 206 253 l40 78 0 120 c0 115 -1 123 -32 186 -37 76 -106 145 -181 183
-69 35 -79 33 -16 -3z"/>
<path d="M64 790 c4 -123 39 -178 150 -235 34 -17 43 -26 30 -27 -10 0 40 -4
111 -8 112 -7 132 -5 143 8 6 9 12 19 12 22 0 4 -47 10 -105 13 -161 10 -261
54 -309 136 -10 17 -22 64 -26 104 l-9 72 3 -85z"/>
<path d="M188 513 c7 -3 16 -2 19 1 4 3 -2 6 -13 5 -11 0 -14 -3 -6 -6z"/>
</g>
</svg>
