<svg width="42" height="42" viewBox="0 0 42 42" fill="none" xmlns="http://www.w3.org/2000/svg">
<path d="M33.7222 9.32749C31.3947 8.24249 28.8747 7.45499 26.2497 6.99999C26.2267 6.99925 26.2038 7.00357 26.1826 7.01264C26.1615 7.02171 26.1426 7.03532 26.1272 7.05249C25.8122 7.62999 25.4447 8.38249 25.1997 8.95999C22.4155 8.53999 19.584 8.53999 16.7997 8.95999C16.5547 8.36499 16.1872 7.62999 15.8547 7.05249C15.8372 7.01749 15.7847 6.99999 15.7322 6.99999C13.1072 7.45499 10.6047 8.24249 8.25972 9.32749C8.24222 9.32749 8.22472 9.34499 8.20722 9.36249C3.44722 16.485 2.13472 23.415 2.78222 30.275C2.78222 30.31 2.79972 30.345 2.83472 30.3625C5.98472 32.6725 9.01222 34.0725 12.0047 35C12.0572 35.0175 12.1097 35 12.1272 34.965C12.8272 34.0025 13.4572 32.9875 13.9997 31.92C14.0347 31.85 13.9997 31.78 13.9297 31.7625C12.9322 31.3775 11.9872 30.9225 11.0597 30.3975C10.9897 30.3625 10.9897 30.2575 11.0422 30.205C11.2347 30.065 11.4272 29.9075 11.6197 29.7675C11.6547 29.7325 11.7072 29.7325 11.7422 29.75C17.7622 32.4975 24.2547 32.4975 30.2047 29.75C30.2397 29.7325 30.2922 29.7325 30.3272 29.7675C30.5197 29.925 30.7122 30.065 30.9047 30.2225C30.9747 30.275 30.9747 30.38 30.8872 30.415C29.9772 30.9575 29.0147 31.395 28.0172 31.78C27.9472 31.7975 27.9297 31.885 27.9472 31.9375C28.5072 33.005 29.1372 34.02 29.8197 34.9825C29.8722 35 29.9247 35.0175 29.9772 35C32.9872 34.0725 36.0147 32.6725 39.1647 30.3625C39.1997 30.345 39.2172 30.31 39.2172 30.275C39.9872 22.3475 37.9397 15.47 33.7922 9.36249C33.7747 9.34499 33.7572 9.32749 33.7222 9.32749ZM14.9097 26.0925C13.1072 26.0925 11.6022 24.43 11.6022 22.3825C11.6022 20.335 13.0722 18.6725 14.9097 18.6725C16.7647 18.6725 18.2347 20.3525 18.2172 22.3825C18.2172 24.43 16.7472 26.0925 14.9097 26.0925ZM27.1072 26.0925C25.3047 26.0925 23.7997 24.43 23.7997 22.3825C23.7997 20.335 25.2697 18.6725 27.1072 18.6725C28.9622 18.6725 30.4322 20.3525 30.4147 22.3825C30.4147 24.43 28.9622 26.0925 27.1072 26.0925Z" fill="white"/>
</svg>
